<?xml version="1.0"?><!DOCTYPE svg  PUBLIC '-//W3C//DTD SVG 1.1//EN'  'http://www.w3.org/Graphics/SVG/1.1/DTD/svg11.dtd'><svg enable-background="new 0 0 512 512" id="Layer_1" version="1.1" viewBox="0 0 512 512" xml:space="preserve" xmlns="http://www.w3.org/2000/svg" xmlns:xlink="http://www.w3.org/1999/xlink"><g><path d="M12.2,258.4C13.3,145.1,84.4,49.5,187.8,18.6c76.7-23,148.5-9.8,212.9,37.8c52.1,38.4,84.4,90.5,95.7,153.9   c16.2,90.5-9.7,168.4-76.6,231.6c-35.6,33.6-78.4,54.2-127.1,61.2c-73.9,10.7-139.2-9-195.4-57.8c-41.3-35.9-67-81.3-79.1-134.5   C14.3,292.7,12.7,274.3,12.2,258.4z M210.2,393.3c11.1-0.1,20.2-4.2,27.7-12.6c20.3-22.8,39.2-46.6,57.9-70.7   c38.1-49,74.9-99,110.9-149.6c3.9-5.4,7.7-10.9,11.2-16.5c1.7-2.6,2.1-5.8-0.1-8.4c-2.3-2.6-5.3-1.4-7.9-0.4   c-1.8,0.7-3.6,1.8-5.2,3c-12.6,9.2-25.3,18.4-37.9,27.7c-48.1,35.7-96,71.6-143.6,108c-12.7,9.7-21.3,10-34.7,1.1   c-23.2-15.3-46.2-30.9-69.3-46.4c-8-5.3-15.4-11.8-25.4-13.2c-8.5-1.2-15.6,4.6-16,13.2c-0.3,7,3,12.5,6.5,18   c13.2,20.8,27,41.2,41.4,61.1c17.8,24.7,36.7,48.6,56,72.1C189.2,388.6,198.6,393.5,210.2,393.3z" fill="#16A2B2"/><path d="M210.2,393.3c-11.7,0.2-21.1-4.7-28.3-13.5c-19.4-23.5-38.2-47.4-56-72.1c-14.4-20-28.2-40.4-41.4-61.1   c-3.5-5.5-6.9-11-6.5-18c0.4-8.5,7.5-14.4,16-13.2c10,1.4,17.4,7.9,25.4,13.2c23.1,15.4,46.1,31,69.3,46.4   c13.4,8.9,22,8.6,34.7-1.1c47.6-36.4,95.5-72.4,143.6-108c12.6-9.3,25.2-18.5,37.9-27.7c1.6-1.2,3.3-2.3,5.2-3   c2.6-1,5.6-2.2,7.9,0.4c2.2,2.6,1.8,5.8,0.1,8.4c-3.5,5.6-7.3,11.1-11.2,16.5C370.7,211,333.9,261,295.8,310   c-18.7,24.1-37.6,47.9-57.9,70.7C230.5,389.1,221.3,393.2,210.2,393.3z" fill="#FDFEFE"/></g></svg>